<svg width="73" height="73" viewBox="0 0 73 73" fill="none" xmlns="http://www.w3.org/2000/svg">
<circle cx="36.4252" cy="36.4994" r="36.4252" fill="url(#paint0_linear_1_5849)"/>
<path d="M34.2687 25.8242C34.7697 25.8242 35.1992 26.0032 35.5571 26.361C35.8434 26.7189 35.9865 27.1484 35.9865 27.6494C35.9865 28.2221 35.8792 28.7947 35.6644 29.3673L29.974 44.0764C29.6162 44.7922 29.2583 45.3648 28.9004 45.7943C28.4709 46.2953 27.7909 46.5459 26.8604 46.5459L23.3173 46.5459C22.7447 46.5459 22.3153 46.3311 22.029 45.9017C21.6711 45.4722 21.5637 44.8996 21.7069 44.1838L24.0689 28.9378C24.1405 28.0789 24.4268 27.3273 24.9278 26.6831C25.4289 26.1105 26.1804 25.8242 27.1825 25.8242L34.2687 25.8242ZM51.4472 25.8242C51.9483 25.8242 52.3777 26.0032 52.7356 26.3611C53.0219 26.7189 53.1651 27.1484 53.1651 27.6494C53.1651 28.2221 53.0577 28.7947 52.843 29.3673L47.1526 44.0764C46.7947 44.7922 46.401 45.3648 45.9716 45.7943C45.5421 46.2953 44.8979 46.5459 44.039 46.5459H40.4959C39.9233 46.5459 39.4938 46.3311 39.2075 45.9017C38.8496 45.4722 38.7423 44.8996 38.8854 44.1838L41.2475 28.9378C41.319 28.0789 41.6054 27.3273 42.1064 26.6831C42.6074 26.1105 43.3232 25.8242 44.2537 25.8242L51.4472 25.8242Z" fill="#4D8137"/>
<defs>
<linearGradient id="paint0_linear_1_5849" x1="-2.06535" y1="15.8585" x2="89.5811" y2="22.3667" gradientUnits="userSpaceOnUse">
<stop stop-color="#FFB629"/>
<stop offset="0.507189" stop-color="#FFDA56"/>
<stop offset="1" stop-color="#FFD7A6"/>
</linearGradient>
</defs>
</svg>
