<svg width="65" height="80" viewBox="0 0 65 80" fill="none" xmlns="http://www.w3.org/2000/svg">
<path d="M64.5 42C64.5 59.9565 50.1659 74.5 32.5 74.5C14.8341 74.5 0.5 59.9565 0.5 42C0.5 24.0435 14.8341 9.5 32.5 9.5C50.1659 9.5 64.5 24.0435 64.5 42Z" fill="#FFE6A5" stroke="#1A2914"/>
<path d="M48.5 13.5C48.5 20.6627 42.4731 26.5 35 26.5C27.5269 26.5 21.5 20.6627 21.5 13.5C21.5 6.33728 27.5269 0.5 35 0.5C42.4731 0.5 48.5 6.33728 48.5 13.5Z" fill="#FFE6A5" stroke="#1A2914"/>
<path d="M60.5 66.5C60.5 73.6627 54.4731 79.5 47 79.5C39.5269 79.5 33.5 73.6627 33.5 66.5C33.5 59.3373 39.5269 53.5 47 53.5C54.4731 53.5 60.5 59.3373 60.5 66.5Z" fill="#FFE6A5" stroke="#1A2914"/>
<path d="M35.026 20.9309C39.012 20.9309 42.2434 17.6995 42.2434 13.7135C42.2434 9.72743 39.012 6.49609 35.026 6.49609C31.0399 6.49609 27.8086 9.72743 27.8086 13.7135C27.8086 17.6995 31.0399 20.9309 35.026 20.9309Z" stroke="#1A2914" stroke-linecap="round" stroke-linejoin="round"/>
<path d="M28.3638 11.4922H41.6882" stroke="#1A2914" stroke-linecap="round" stroke-linejoin="round"/>
<path d="M28.3638 15.9336H41.6882" stroke="#1A2914" stroke-linecap="round" stroke-linejoin="round"/>
<path d="M35.0259 20.3752C36.559 20.3752 37.8018 17.3924 37.8018 13.713C37.8018 10.0336 36.559 7.05078 35.0259 7.05078C33.4928 7.05078 32.25 10.0336 32.25 13.713C32.25 17.3924 33.4928 20.3752 35.0259 20.3752Z" stroke="#1A2914" stroke-linecap="round" stroke-linejoin="round"/>
<path d="M44.0132 47.3867L55.4295 40.4743" stroke="#1A2914" stroke-linecap="round" stroke-linejoin="round"/>
<path d="M42.145 48.3809L36.9804 51.3627" stroke="#1A2914" stroke-linecap="round" stroke-linejoin="round"/>
<path d="M9.52037 46.9932L17.2363 54.2267C18.2651 55.1923 19.5778 55.7997 20.979 55.9584C22.3803 56.1172 23.7953 55.8188 25.0136 55.1078L56 37.0752L52.1932 32.4032C51.2029 31.1923 49.8128 30.3759 48.2739 30.1015C46.7349 29.8272 45.1488 30.113 43.8019 30.9073L34.7147 36.2556L22.4348 32.1573L19.0578 33.6122C18.8052 33.7206 18.5838 33.8909 18.4142 34.1075C18.2446 34.3241 18.1322 34.5799 18.0874 34.8514C18.0425 35.1229 18.0667 35.4014 18.1576 35.6611C18.2485 35.9208 18.4032 36.1535 18.6075 36.3375L24.8908 41.9932L19.1601 45.2719L13.4295 42.8129L9.9911 44.2883C9.74095 44.3959 9.52154 44.5642 9.35273 44.7781C9.18392 44.9919 9.07104 45.2446 9.0243 45.5131C8.97757 45.7817 8.99845 46.0576 9.08507 46.3161C9.17169 46.5745 9.3213 46.8072 9.52037 46.9932V46.9932Z" stroke="#1A2914" stroke-linecap="round" stroke-linejoin="round"/>
<path d="M22.7485 52.6582L34.1649 45.7458" stroke="#1A2914" stroke-linecap="round" stroke-linejoin="round"/>
<path d="M53.5128 70.3386V63.6782C53.5123 63.582 53.4864 63.4876 53.4376 63.4046C53.3889 63.3216 53.3192 63.2528 53.2354 63.2053L47.281 59.8616C47.2008 59.8154 47.1098 59.791 47.0171 59.791C46.9245 59.791 46.8335 59.8154 46.7533 59.8616L40.7989 63.2053C40.7151 63.2528 40.6453 63.3216 40.5966 63.4046C40.5479 63.4876 40.522 63.582 40.5215 63.6782V70.3386C40.522 70.4348 40.5479 70.5292 40.5966 70.6122C40.6453 70.6952 40.7151 70.764 40.7989 70.8115L46.7533 74.1552C46.8335 74.2015 46.9245 74.2258 47.0171 74.2258C47.1098 74.2258 47.2008 74.2015 47.281 74.1552L53.2354 70.8115C53.3192 70.764 53.3889 70.6952 53.4376 70.6122C53.4864 70.5292 53.5123 70.4348 53.5128 70.3386V70.3386Z" stroke="#1A2914" stroke-linecap="round" stroke-linejoin="round"/>
<path d="M53.5128 63.4004L47.0787 67.0091L40.5215 63.4004" stroke="#1A2914" stroke-linecap="round" stroke-linejoin="round"/>
<path d="M47.0171 67.0078V74.2252" stroke="#1A2914" stroke-linecap="round" stroke-linejoin="round"/>
</svg>
