<svg width="49" height="51" viewBox="0 0 49 51" fill="none" xmlns="http://www.w3.org/2000/svg">
<path d="M25.5117 39.7378C27.1618 40.8666 29.0278 41.6382 30.9909 42.0034C32.954 42.3686 34.9713 42.3195 36.9145 41.8592C38.8577 41.3988 40.6843 40.5374 42.278 39.3295C43.8717 38.1217 45.1977 36.594 46.1717 34.8435C47.1457 33.093 47.7463 31.1581 47.9353 29.1619C48.1244 27.1656 47.8978 25.1516 47.2698 23.2481C46.6419 21.3446 45.6264 19.5932 44.288 18.1052C42.9496 16.6173 41.3175 15.4254 39.4955 14.6053C39.0955 14.4033 38.7776 14.0681 38.5962 13.6569C37.4307 10.8681 35.4711 8.48715 32.9634 6.81275C30.4556 5.13835 27.5113 4.24512 24.5 4.24512C21.4887 4.24512 18.5444 5.13835 16.0366 6.81275C13.5289 8.48715 11.5693 10.8681 10.4038 13.6569C10.2224 14.0681 9.90453 14.4033 9.50447 14.6053C7.68253 15.4254 6.05045 16.6173 4.71202 18.1052C3.37359 19.5932 2.35812 21.3446 1.73018 23.2481C1.10225 25.1516 0.875601 27.1656 1.06465 29.1619C1.25371 31.1581 1.85432 33.093 2.8283 34.8435C3.80227 36.594 5.12829 38.1217 6.72202 39.3295C8.31574 40.5374 10.1423 41.3988 12.0855 41.8592C14.0287 42.3195 16.046 42.3686 18.0091 42.0034C19.9722 41.6382 21.8382 40.8666 23.4883 39.7378C23.7888 39.5396 24.1405 39.434 24.5 39.434C24.8595 39.434 25.2112 39.5396 25.5117 39.7378Z" fill="#FFD550" stroke="#1A2914" stroke-width="2" stroke-linecap="round" stroke-linejoin="round"/>
<path d="M42.5531 29.8876C41.4127 32.7358 38.6089 37.502 30.9353 37.502" stroke="#1A2914" stroke-width="2" stroke-linecap="round" stroke-linejoin="round"/>
<path d="M6.8808 10.7235C8.18332 7.74898 11.2226 3.4996 17.8403 1.96875" stroke="#1A2914" stroke-width="2" stroke-linecap="round" stroke-linejoin="round"/>
<path d="M24.8623 49.9114V18.7148" stroke="#1A2914" stroke-width="2" stroke-linecap="round" stroke-linejoin="round"/>
<path d="M24.8627 32.5803L14.2378 27.3809" stroke="#1A2914" stroke-width="2" stroke-linecap="round" stroke-linejoin="round"/>
<path d="M15.123 24.3589L18.5872 26.3164" stroke="white" stroke-linecap="round" stroke-linejoin="round"/>
<path d="M21.7744 18.4269L21.7744 22.3418" stroke="#1A2914" stroke-linecap="round" stroke-linejoin="round"/>
<path d="M27.5652 43.2451L27.5652 48.2451" stroke="#1A2914" stroke-width="1.5" stroke-linecap="round" stroke-linejoin="round"/>
<path d="M24.8623 27.3811L35.4872 22.1816" stroke="#1A2914" stroke-width="2" stroke-linecap="round" stroke-linejoin="round"/>
</svg>
