<svg width="63" height="64" viewBox="0 0 63 64" fill="none" xmlns="http://www.w3.org/2000/svg">
<circle cx="31.5" cy="31.7168" r="31.5" fill="url(#paint0_linear_1_6268)"/>
<path d="M32 20.2168C38.6274 20.2168 44 25.5894 44 32.2168C44 38.8442 38.6274 44.2168 32 44.2168C25.3726 44.2168 20 38.8442 20 32.2168C20 25.5894 25.3726 20.2168 32 20.2168Z" stroke="#1A2914" stroke-width="2" stroke-linecap="round" stroke-linejoin="round"/>
<path d="M21 36.2168H43" stroke="#1A2914" stroke-width="2" stroke-linecap="round" stroke-linejoin="round"/>
<path d="M21 28.2168H43" stroke="#1A2914" stroke-width="2" stroke-linecap="round" stroke-linejoin="round"/>
<path d="M32 20.2168C34.2091 20.2168 36 25.5894 36 32.2168C36 38.8442 34.2091 44.2168 32 44.2168C29.7909 44.2168 28 38.8442 28 32.2168C28 25.5894 29.7909 20.2168 32 20.2168Z" stroke="#1A2914" stroke-width="2" stroke-linecap="round" stroke-linejoin="round"/>
<defs>
<linearGradient id="paint0_linear_1_6268" x1="-1.78608" y1="13.8668" x2="77.4684" y2="19.495" gradientUnits="userSpaceOnUse">
<stop stop-color="#FFB629"/>
<stop offset="0.507189" stop-color="#FFDA56"/>
<stop offset="1" stop-color="#FFD7A6"/>
</linearGradient>
</defs>
</svg>
