<svg width="63" height="64" viewBox="0 0 63 64" fill="none" xmlns="http://www.w3.org/2000/svg">
<circle cx="31.5" cy="31.7168" r="31.5" fill="url(#paint0_linear_1_6285)"/>
<path d="M41 29.3598H37.8579C37.4412 29.3598 37.0416 29.5203 36.747 29.8061C36.4523 30.0919 36.2868 30.4794 36.2868 30.8836V34.693C36.2868 35.0971 36.4523 35.4847 36.747 35.7705C37.0416 36.0563 37.4412 36.2168 37.8579 36.2168H39.4289C39.8456 36.2168 40.2452 36.0563 40.5398 35.7705C40.8345 35.4847 41 35.0971 41 34.693V29.3598ZM41 29.3598C41 28.1527 40.7536 26.9576 40.275 25.8434C39.7964 24.7291 39.095 23.7178 38.2114 22.8679C37.3277 22.0179 36.2793 21.346 35.1265 20.8911C33.9738 20.4361 32.7396 20.2071 31.4951 20.2171C30.2514 20.2083 29.0183 20.4383 27.8667 20.8938C26.7151 21.3494 25.6678 22.0214 24.7852 22.8713C23.9026 23.7211 23.2021 24.732 22.7241 25.8456C22.246 26.9592 22 28.1535 22 29.3598V34.693C22 35.0971 22.1655 35.4847 22.4602 35.7705C22.7548 36.0563 23.1544 36.2168 23.5711 36.2168H25.1421C25.5588 36.2168 25.9584 36.0563 26.253 35.7705C26.5477 35.4847 26.7132 35.0971 26.7132 34.693V30.8836C26.7132 30.4794 26.5477 30.0919 26.253 29.8061C25.9584 29.5203 25.5588 29.3598 25.1421 29.3598H22" stroke="#1A2914" stroke-width="2" stroke-linecap="round" stroke-linejoin="round"/>
<path d="M41 35.2168V37.3597C41 38.1174 40.661 38.8441 40.0575 39.38C39.454 39.9158 38.6356 40.2168 37.7821 40.2168H32" stroke="#1A2914" stroke-width="2" stroke-linecap="round" stroke-linejoin="round"/>
<defs>
<linearGradient id="paint0_linear_1_6285" x1="-1.78608" y1="13.8668" x2="77.4684" y2="19.495" gradientUnits="userSpaceOnUse">
<stop stop-color="#FFB629"/>
<stop offset="0.507189" stop-color="#FFDA56"/>
<stop offset="1" stop-color="#FFD7A6"/>
</linearGradient>
</defs>
</svg>
