<svg width="20" height="20" viewBox="0 0 20 20" fill="none" xmlns="http://www.w3.org/2000/svg">
<path d="M14.0759 2.03285C15.173 2.036 16.2242 2.45677 17 3.20325C17.7757 3.94974 18.213 4.96129 18.2162 6.01697V13.9844C18.213 15.0401 17.7757 16.0516 17 16.7981C16.2242 17.5446 15.173 17.9653 14.0759 17.9685H5.79618C4.69911 17.9653 3.6479 17.5446 2.87215 16.7981C2.0964 16.0516 1.65914 15.0401 1.65586 13.9844V6.01697C1.65914 4.96129 2.0964 3.94974 2.87215 3.20325C3.6479 2.45677 4.69911 2.036 5.79618 2.03285H14.0759ZM14.0759 0.439453H5.79618C2.60821 0.439453 0 2.94927 0 6.01697V13.9844C0 17.0521 2.60821 19.5619 5.79618 19.5619H14.0759C17.2639 19.5619 19.8721 17.0521 19.8721 13.9844V6.01697C19.8721 2.94927 17.2639 0.439453 14.0759 0.439453Z" fill="white"/>
<path d="M15.3182 6.01726C15.0725 6.01726 14.8324 5.94716 14.6281 5.81584C14.4239 5.68451 14.2647 5.49786 14.1707 5.27947C14.0767 5.06109 14.0521 4.82078 14.1 4.58894C14.148 4.35711 14.2662 4.14415 14.4399 3.97701C14.6136 3.80986 14.8349 3.69603 15.0759 3.64992C15.3168 3.6038 15.5665 3.62747 15.7935 3.71793C16.0204 3.80839 16.2144 3.96157 16.3509 4.15811C16.4873 4.35466 16.5602 4.58573 16.5602 4.82211C16.5605 4.97915 16.5286 5.13471 16.4663 5.27987C16.4041 5.42502 16.3126 5.55691 16.1972 5.66796C16.0818 5.77901 15.9447 5.86703 15.7939 5.92697C15.643 5.98691 15.4814 6.0176 15.3182 6.01726ZM9.93629 6.81374C10.5914 6.81374 11.2317 7.00067 11.7764 7.35088C12.3211 7.7011 12.7456 8.19888 12.9963 8.78126C13.247 9.36365 13.3126 10.0045 13.1848 10.6228C13.057 11.241 12.7416 11.8089 12.2783 12.2547C11.8151 12.7004 11.225 13.004 10.5825 13.1269C9.93996 13.2499 9.274 13.1868 8.66878 12.9456C8.06356 12.7043 7.54627 12.2958 7.18233 11.7717C6.81838 11.2475 6.62412 10.6313 6.62412 10.001C6.62506 9.15593 6.97432 8.34578 7.59527 7.74825C8.21622 7.15073 9.05814 6.81465 9.93629 6.81374ZM9.93629 5.22035C8.95371 5.22035 7.99319 5.50073 7.1762 6.02603C6.35922 6.55133 5.72245 7.29795 5.34643 8.1715C4.97041 9.04504 4.87203 10.0063 5.06372 10.9336C5.25542 11.861 5.72857 12.7128 6.42337 13.3814C7.11816 14.0499 8.00337 14.5052 8.96708 14.6897C9.93078 14.8742 10.9297 14.7795 11.8375 14.4177C12.7453 14.0558 13.5212 13.4431 14.0671 12.6569C14.6129 11.8708 14.9043 10.9465 14.9043 10.001C14.9043 8.73306 14.3809 7.51709 13.4492 6.62056C12.5175 5.72402 11.2539 5.22035 9.93629 5.22035Z" fill="white"/>
</svg>
