<svg width="17" height="16" viewBox="0 0 17 16" fill="none" xmlns="http://www.w3.org/2000/svg">
<path d="M11.7283 1.36084C12.6424 1.36347 13.5183 1.71406 14.1646 2.33604C14.811 2.95803 15.1753 3.80087 15.1781 4.68048V11.319C15.1753 12.1987 14.811 13.0415 14.1646 13.6635C13.5183 14.2855 12.6424 14.636 11.7283 14.6387H4.82947C3.91537 14.636 3.03949 14.2855 2.39312 13.6635C1.74675 13.0415 1.38242 12.1987 1.37969 11.319V4.68048C1.38242 3.80087 1.74675 2.95803 2.39312 2.33604C3.03949 1.71406 3.91537 1.36347 4.82947 1.36084H11.7283ZM11.7283 0.0332031H4.82947C2.1732 0.0332031 0 2.12442 0 4.68048V11.319C0 13.8751 2.1732 15.9663 4.82947 15.9663H11.7283C14.3845 15.9663 16.5578 13.8751 16.5578 11.319V4.68048C16.5578 2.12442 14.3845 0.0332031 11.7283 0.0332031Z" fill="#1A2914"/>
<path d="M12.7634 4.68109C12.5587 4.68109 12.3586 4.62269 12.1884 4.51327C12.0182 4.40385 11.8856 4.24832 11.8073 4.06636C11.7289 3.88439 11.7085 3.68417 11.7484 3.491C11.7883 3.29783 11.8869 3.12039 12.0316 2.98112C12.1763 2.84185 12.3607 2.74701 12.5615 2.70859C12.7622 2.67016 12.9703 2.68988 13.1594 2.76526C13.3485 2.84063 13.5101 2.96826 13.6238 3.13203C13.7375 3.29579 13.7982 3.48832 13.7982 3.68527C13.7985 3.81613 13.7719 3.94574 13.72 4.06669C13.6681 4.18763 13.5919 4.29753 13.4958 4.39005C13.3996 4.48258 13.2854 4.55592 13.1597 4.60586C13.034 4.65581 12.8993 4.68137 12.7634 4.68109ZM8.27909 5.34474C8.82491 5.34474 9.35848 5.50049 9.81232 5.79229C10.2662 6.0841 10.6199 6.49885 10.8288 6.98411C11.0376 7.46936 11.0923 8.00332 10.9858 8.51846C10.8793 9.03361 10.6165 9.50679 10.2305 9.87819C9.84457 10.2496 9.35283 10.5025 8.81749 10.605C8.28215 10.7075 7.72726 10.6549 7.22298 10.4539C6.7187 10.2529 6.28769 9.91248 5.98444 9.47577C5.6812 9.03905 5.51934 8.52561 5.51934 8.00037C5.52012 7.29629 5.81113 6.62125 6.32852 6.12339C6.8459 5.62552 7.5474 5.34549 8.27909 5.34474ZM8.27909 4.01709C7.46038 4.01709 6.66007 4.25071 5.97934 4.6884C5.29861 5.12609 4.76805 5.74819 4.45475 6.47604C4.14144 7.20389 4.05947 8.00479 4.21919 8.77747C4.37891 9.55015 4.77315 10.2599 5.35206 10.817C5.93097 11.374 6.66855 11.7534 7.47152 11.9071C8.2745 12.0608 9.1068 11.9819 9.86318 11.6804C10.6196 11.379 11.2661 10.8684 11.7209 10.2134C12.1758 9.55832 12.4185 8.78819 12.4185 8.00037C12.4185 6.94394 11.9824 5.93078 11.2061 5.18377C10.4298 4.43676 9.37694 4.01709 8.27909 4.01709Z" fill="#1A2914"/>
</svg>
