<svg width="20" height="20" viewBox="0 0 20 20" fill="none" xmlns="http://www.w3.org/2000/svg">
<path d="M18.441 0.291016H2.23491C1.34938 0.291016 0.575684 0.928181 0.575684 1.80331V18.0454C0.575684 18.9253 1.34938 19.7094 2.23491 19.7094H18.4362C19.3265 19.7094 19.994 18.9201 19.994 18.0454V1.80331C19.9992 0.928181 19.3265 0.291016 18.441 0.291016ZM6.59494 16.4772H3.81309V7.82777H6.59494V16.4772ZM5.30024 6.51269H5.2803C4.39 6.51269 3.81352 5.84996 3.81352 5.02034C3.81352 4.17555 4.40518 3.52842 5.31541 3.52842C6.22565 3.52842 6.78262 4.17079 6.80256 5.02034C6.80213 5.84996 6.22565 6.51269 5.30024 6.51269ZM16.7618 16.4772H13.98V11.7478C13.98 10.6148 13.5751 9.84069 12.5687 9.84069C11.7998 9.84069 11.3446 10.3608 11.1422 10.8675C11.0664 11.0496 11.046 11.2975 11.046 11.5506V16.4772H8.26414V7.82777H11.046V9.03145C11.4508 8.45496 12.0832 7.62535 13.5548 7.62535C15.3809 7.62535 16.7623 8.82903 16.7623 11.4241L16.7618 16.4772Z" fill="white"/>
</svg>
