<svg width="17" height="18" viewBox="0 0 17 18" fill="none" xmlns="http://www.w3.org/2000/svg">
<path d="M15.5253 0.910156H2.02214C1.28431 0.910156 0.639648 1.44105 0.639648 2.17022V15.7034C0.639648 16.4365 1.28431 17.0898 2.02214 17.0898H15.5213C16.2632 17.0898 16.8193 16.4322 16.8193 15.7034V2.17022C16.8237 1.44105 16.2632 0.910156 15.5253 0.910156ZM5.65499 14.3967H3.33711V7.1899H5.65499V14.3967ZM4.57622 6.09416H4.55961C3.8178 6.09416 3.33747 5.54195 3.33747 4.8507C3.33747 4.14682 3.83044 3.60761 4.58886 3.60761C5.34729 3.60761 5.81137 4.14284 5.82798 4.8507C5.82762 5.54195 5.34729 6.09416 4.57622 6.09416ZM14.1262 14.3967H11.8083V10.4562C11.8083 9.51211 11.471 8.86709 10.6324 8.86709C9.99172 8.86709 9.61251 9.30048 9.44385 9.72267C9.38065 9.87435 9.36368 10.0809 9.36368 10.2918V14.3967H7.04579V7.1899H9.36368V8.19282C9.70099 7.71249 10.2279 7.02124 11.454 7.02124C12.9756 7.02124 14.1266 8.02416 14.1266 10.1864L14.1262 14.3967Z" fill="#1A2914"/>
</svg>
