<svg width="200" height="20" viewBox="0 0 200 20" fill="none" xmlns="http://www.w3.org/2000/svg">
    <g clip-path="url(#clip0_332_80)">
        <path d="M73.0283 0.765625H76.8455V14.2382H85.183V17.4172H73.0283V0.765625Z" fill="white" />
        <path
            d="M90.4071 16.5596C89.0273 15.8401 87.8706 14.7537 87.0633 13.419C86.256 12.0843 85.8291 10.5525 85.8291 8.99065C85.8291 7.42884 86.256 5.89702 87.0633 4.5623C87.8706 3.22758 89.0273 2.14123 90.4071 1.42176C91.8468 0.664173 93.4531 0.282429 95.0781 0.311647C96.6876 0.277719 98.2788 0.65999 99.6989 1.42176C101.046 2.12954 102.175 3.19393 102.964 4.49978C103.721 5.84703 104.118 7.36789 104.118 8.91497C104.118 10.4621 103.721 11.9829 102.964 13.3302C102.175 14.636 101.046 15.7004 99.6989 16.4082C98.2788 17.1699 96.6876 17.5522 95.0781 17.5183C93.4659 17.5944 91.8604 17.2648 90.4071 16.5596ZM97.7401 13.7338C98.52 13.2744 99.162 12.6119 99.5984 11.8164C100.049 10.9808 100.274 10.0414 100.251 9.09152C100.28 8.12485 100.055 7.16764 99.5984 6.31632C99.162 5.52077 98.52 4.8583 97.7401 4.39884C96.9241 3.95271 96.007 3.72668 95.0781 3.74284C94.1474 3.70933 93.2257 3.93647 92.4161 4.39884C91.6361 4.8583 90.9941 5.52077 90.5578 6.31632C90.101 7.16764 89.8758 8.12485 89.9048 9.09152C89.8823 10.0414 90.1074 10.9808 90.5578 11.8164C90.9941 12.6119 91.6361 13.2744 92.4161 13.7338C93.2257 14.1962 94.1474 14.4233 95.0781 14.3898C95.9894 14.4684 96.9057 14.3121 97.7401 13.9356V13.7338Z"
            fill="white" />
        <path
            d="M118.232 8.88986H121.748V15.6514C120.802 16.3699 119.728 16.9007 118.584 17.2156C117.435 17.6002 116.229 17.7879 115.018 17.7706C113.408 17.8046 111.817 17.4223 110.397 16.6605C109.05 15.9528 107.921 14.8884 107.132 13.5825C106.359 12.251 105.96 10.7339 105.977 9.1926C105.959 7.63514 106.358 6.10135 107.132 4.75217C107.921 3.44632 109.05 2.38201 110.397 1.67423C111.731 1.00864 113.19 0.633146 114.679 0.572284C116.168 0.511422 117.652 0.76652 119.036 1.32098C120.208 1.75052 121.247 2.48125 122.049 3.44026L119.588 5.7109C119.041 5.11026 118.373 4.6333 117.628 4.31145C116.884 3.9896 116.079 3.83022 115.269 3.84394C114.291 3.82203 113.324 4.04764 112.456 4.49993C111.664 4.93833 111.005 5.58333 110.548 6.3669C110.074 7.23176 109.831 8.20542 109.845 9.1926C109.84 10.1468 110.082 11.0858 110.548 11.9174C110.998 12.7196 111.658 13.3826 112.456 13.8348C113.322 14.2934 114.291 14.5194 115.269 14.4908C116.299 14.4972 117.315 14.2549 118.232 13.7844V8.88986Z"
            fill="white" />
        <path d="M125.264 0.765625H129.131V17.4172H125.264V0.765625Z" fill="white" />
        <path
            d="M134.707 17.165C133.641 16.8796 132.637 16.4007 131.743 15.7522L133.049 12.876C133.827 13.406 134.671 13.8302 135.56 14.1375C136.52 14.4369 137.519 14.59 138.524 14.5916C139.359 14.662 140.197 14.4867 140.935 14.087C141.166 13.9648 141.362 13.7843 141.502 13.5632C141.643 13.342 141.725 13.0878 141.738 12.8255C141.747 12.6283 141.705 12.4321 141.617 12.2555C141.529 12.0789 141.398 11.9278 141.236 11.8164C140.891 11.545 140.499 11.3397 140.081 11.2109C139.44 10.9861 138.785 10.8007 138.122 10.6558C137.067 10.4147 136.027 10.1114 135.008 9.74753C134.198 9.46347 133.485 8.95642 132.949 8.28425C132.336 7.55389 132.03 6.61311 132.095 5.66035C132.081 4.73003 132.344 3.81671 132.848 3.03646C133.427 2.18673 134.251 1.53527 135.209 1.16949C136.431 0.651904 137.751 0.410731 139.076 0.463066C140.124 0.455769 141.17 0.574307 142.19 0.81624C143.111 1.05281 143.992 1.42702 144.802 1.92635L143.647 4.85299C142.244 4.02506 140.653 3.57333 139.026 3.54108C138.202 3.48706 137.38 3.68025 136.665 4.09613C136.432 4.23725 136.24 4.43731 136.108 4.67636C135.976 4.91541 135.908 5.18512 135.912 5.45855C135.913 5.73041 135.994 5.99576 136.147 6.22057C136.299 6.44537 136.514 6.61934 136.766 6.72003C137.635 7.09604 138.545 7.367 139.478 7.52732C140.533 7.76844 141.573 8.07176 142.592 8.43562C143.391 8.73948 144.1 9.2431 144.651 9.89891C144.959 10.2578 145.193 10.6745 145.34 11.1249C145.486 11.5753 145.543 12.0505 145.505 12.5228C145.499 13.4504 145.238 14.3583 144.752 15.1467C144.116 15.9613 143.287 16.6031 142.341 17.0137C141.109 17.4934 139.794 17.7166 138.473 17.6697C137.2 17.6827 135.932 17.5127 134.707 17.165Z"
            fill="white" />
        <path
            d="M151.331 3.84328H146.309V0.714844H160.723V3.84328H155.45V17.3663H151.582L151.331 3.84328Z"
            fill="white" />
        <path d="M162.531 0.765625H166.399V17.4172H162.531V0.765625Z" fill="white" />
        <path
            d="M173.681 16.5596C172.338 15.8641 171.222 14.7957 170.466 13.4815C169.654 12.1647 169.235 10.6407 169.261 9.09154C169.237 7.52667 169.655 5.98703 170.466 4.65119C171.222 3.33701 172.338 2.26863 173.681 1.57317C175.083 0.811255 176.658 0.428695 178.251 0.463065C179.595 0.441214 180.929 0.698879 182.169 1.21992C183.287 1.71969 184.281 2.46049 185.082 3.38971L182.621 5.71079C182.133 5.07248 181.5 4.56082 180.774 4.21848C180.049 3.87613 179.253 3.71304 178.452 3.74288C177.507 3.72025 176.572 3.94641 175.74 4.39887C174.93 4.83541 174.266 5.50243 173.831 6.31635C173.375 7.16767 173.15 8.12487 173.179 9.09154C173.156 10.0415 173.381 10.9808 173.831 11.8164C174.266 12.6303 174.93 13.2973 175.74 13.7339C176.572 14.1863 177.507 14.4124 178.452 14.3898C179.253 14.4196 180.049 14.2566 180.774 13.9143C181.5 13.5719 182.133 13.0602 182.621 12.4219L185.082 14.6925C184.298 15.6517 183.3 16.4122 182.169 16.9127C180.927 17.4256 179.595 17.683 178.251 17.6697C176.658 17.704 175.083 17.3215 173.681 16.5596Z"
            fill="white" />
        <path
            d="M189.202 17.1644C188.136 16.8789 187.132 16.4 186.238 15.7515L187.544 12.8753C188.322 13.4053 189.167 13.8295 190.056 14.1368C191.015 14.4362 192.014 14.5893 193.019 14.591C193.853 14.6502 194.688 14.4755 195.43 14.0863C195.655 13.9616 195.843 13.7792 195.976 13.5576C196.108 13.3361 196.179 13.0832 196.183 12.8249C196.189 12.6332 196.151 12.4427 196.073 12.2678C195.995 12.0929 195.878 11.9383 195.731 11.8157C195.386 11.5443 194.995 11.3391 194.576 11.2102C193.935 10.9854 193.281 10.8001 192.617 10.6552C191.56 10.4211 190.52 10.1176 189.503 9.74685C188.694 9.46279 187.98 8.95574 187.444 8.28357C186.813 7.56091 186.489 6.61929 186.54 5.65967C186.544 4.72459 186.824 3.8117 187.343 3.03577C187.922 2.18605 188.746 1.53459 189.704 1.16881C190.924 0.646371 192.246 0.404999 193.571 0.462384C194.603 0.452168 195.632 0.570775 196.635 0.815558C197.571 1.05512 198.467 1.429 199.297 1.92567L198.092 4.85231C196.707 4.02426 195.132 3.57218 193.521 3.5404C192.697 3.48638 191.875 3.67957 191.16 4.09545C190.914 4.22586 190.709 4.4222 190.567 4.66267C190.425 4.90314 190.353 5.17838 190.357 5.45787C190.354 5.73748 190.44 6.01067 190.603 6.23759C190.765 6.46452 190.996 6.63332 191.261 6.71935C192.13 7.09536 193.04 7.36632 193.973 7.52664C195.028 7.76776 196.068 8.07108 197.087 8.43494C197.886 8.7388 198.595 9.24242 199.146 9.89822C199.745 10.636 200.05 11.5713 200 12.5221C200.012 13.4596 199.731 14.3771 199.197 15.146C198.591 15.9701 197.775 16.615 196.836 17.013C195.602 17.4848 194.288 17.7077 192.969 17.669C191.695 17.682 190.427 17.512 189.202 17.1644Z"
            fill="white" />
        <path
            d="M0 7.57765V17.4172H3.56605V14.6419L0 7.57765ZM18.6339 7.57765L15.0678 14.5915V17.4172H18.9352L18.6339 7.57765ZM15.4696 0.765625L9.34202 11.1098L3.16423 0.765625H0L4.21898 8.68775L8.43799 15.6511H10.1457L14.8669 7.77945L18.5837 0.866565L15.4696 0.765625Z"
            fill="white" />
        <path
            d="M25.9667 16.5596C24.5868 15.8401 23.4302 14.7537 22.6229 13.419C21.8156 12.0843 21.3887 10.5525 21.3887 8.99065C21.3887 7.42884 21.8156 5.89702 22.6229 4.5623C23.4302 3.22758 24.5868 2.14123 25.9667 1.42176C27.4064 0.664173 29.0127 0.282429 30.6377 0.311647C32.2472 0.277719 33.8383 0.65999 35.2585 1.42176C36.6057 2.12954 37.7346 3.19393 38.5232 4.49978C39.2801 5.84703 39.6779 7.36789 39.6779 8.91497C39.6779 10.4621 39.2801 11.9829 38.5232 13.3302C37.7346 14.636 36.6057 15.7004 35.2585 16.4082C33.8383 17.1699 32.2472 17.5522 30.6377 17.5183C29.0255 17.5944 27.4199 17.2648 25.9667 16.5596ZM33.2996 13.7338C34.0796 13.2744 34.7216 12.6119 35.158 11.8164C35.6084 10.9808 35.8335 10.0414 35.8109 9.09152C35.84 8.12485 35.6148 7.16764 35.158 6.31632C34.7216 5.52077 34.0796 4.8583 33.2996 4.39884C32.4837 3.95271 31.5665 3.72668 30.6377 3.74284C29.707 3.70933 28.7853 3.93647 27.9757 4.39884C27.1958 4.8583 26.5537 5.52077 26.1173 6.31632C25.6606 7.16764 25.4354 8.12485 25.4644 9.09152C25.4419 10.0414 25.667 10.9808 26.1173 11.8164C26.5537 12.6119 27.1958 13.2744 27.9757 13.7338C28.7853 14.1962 29.707 14.4233 30.6377 14.3898C31.549 14.4684 32.4652 14.3121 33.2996 13.9356V13.7338Z"
            fill="white" />
        <path
            d="M49.8242 11.5135V17.4172H46.007V11.4629L39.5781 0.765625H43.6464L48.0663 8.1327L52.4862 0.765625H56.2531L49.8242 11.5135Z"
            fill="white" />
        <path d="M55.8008 17.417H67.6541V19.5363H55.8008V17.417Z" fill="white" />
    </g>
    <defs>
        <clipPath id="clip0_332_80">
            <rect width="200" height="19.0736" fill="white" transform="translate(0 0.462891)" />
        </clipPath>
    </defs>
</svg>