<svg width="56" height="40" viewBox="0 0 56 40" fill="none" xmlns="http://www.w3.org/2000/svg">
<path d="M24.8276 28.8953C32.3513 28.8953 38.4505 22.7961 38.4505 15.2724C38.4505 7.74862 32.3513 1.64941 24.8276 1.64941C17.3038 1.64941 11.2046 7.74862 11.2046 15.2724C11.2046 22.7961 17.3038 28.8953 24.8276 28.8953Z" fill="#FFD550" stroke="#1A2914" stroke-width="2" stroke-linecap="round" stroke-linejoin="round"/>
<path d="M5.34668 37.9771C7.73355 35.1323 10.7145 32.8448 14.08 31.2754C17.4456 29.7059 21.114 28.8926 24.8275 28.8926C28.541 28.8926 32.2094 29.7059 35.575 31.2754C38.9405 32.8448 41.9215 35.1323 44.3084 37.9771" stroke="#1A2914" stroke-width="2" stroke-linecap="round" stroke-linejoin="round"/>
<path d="M51.892 39.1123L41.6748 39.1123L41.6747 20.9484L51.892 20.9484L51.892 39.1123Z" fill="white" stroke="#141414" stroke-linecap="round" stroke-linejoin="round"/>
<path d="M51.892 27.7598L41.6748 27.7598L41.6748 20.9483L51.892 20.9483L51.892 27.7598Z" fill="#FFD550" stroke="black" stroke-linecap="round" stroke-linejoin="round"/>
<path d="M48.4862 25.4893L45.0805 25.4893" stroke="#141414" stroke-linecap="round" stroke-linejoin="round"/>
<path d="M48.4862 31.165L45.0805 31.165" stroke="#141414" stroke-linecap="round" stroke-linejoin="round"/>
<path d="M55.2976 28.8955L55.2976 38.5528" stroke="#1A2914" stroke-linecap="round" stroke-linejoin="round"/>
<path d="M6.71961 22.6294C5.84388 21.4753 3.68521 17.6349 5.35522 10.4199" stroke="#1A2914" stroke-width="1.5" stroke-linecap="round" stroke-linejoin="round"/>
<path d="M35.2446 16.6853C35.1963 17.8456 34.555 21.3293 29.708 25.0127" stroke="#1A2914" stroke-linecap="round" stroke-linejoin="round"/>
</svg>
