<svg width="19" height="19" viewBox="0 0 19 19" fill="none" xmlns="http://www.w3.org/2000/svg">
<path d="M1.47405 1.14082C1.33945 1.14492 1.20709 1.17427 1.08481 1.22715C0.96253 1.28003 0.85282 1.35536 0.762173 1.44867C0.671526 1.54199 0.601785 1.65139 0.557081 1.77041C0.512376 1.88943 0.493616 2.01564 0.501912 2.14157C0.636398 4.30147 1.2704 9.57161 4.30595 12.8583C7.94092 16.8181 12.6748 18.1824 17.5317 17.9808C17.792 17.9662 18.0368 17.8596 18.2165 17.6826C18.3962 17.5055 18.4975 17.2712 18.5 17.0268V13.5674C18.497 13.2446 18.3783 12.9322 18.163 12.6802C17.9476 12.4282 17.6482 12.2513 17.3127 12.1779L14.8804 11.6739C14.5796 11.6138 14.2664 11.6397 13.9815 11.7481C13.6965 11.8566 13.4528 12.0427 13.2819 12.2823L12.744 13.0454C12.6946 13.1153 12.6208 13.1668 12.5352 13.1911C12.4496 13.2154 12.3577 13.211 12.2752 13.1786C11.0379 12.6783 6.10806 10.5184 5.56628 6.87534C5.55566 6.80498 5.56751 6.73326 5.60033 6.6692C5.63316 6.60514 5.68548 6.55161 5.75071 6.51536L6.7267 5.95739C6.9944 5.80196 7.20467 5.57324 7.32906 5.30218C7.45345 5.03112 7.48596 4.7308 7.42218 4.44186L6.88808 2.12358C6.81 1.79875 6.61418 1.50932 6.33395 1.30454C6.05371 1.09976 5.70639 0.992295 5.3511 1.00043L1.47405 1.14082Z" stroke="white"/>
</svg>
