<svg width="56" height="42" viewBox="0 0 56 42" fill="none" xmlns="http://www.w3.org/2000/svg">
<path d="M39.0754 16.0424V6.07812H44.6722C47.5068 6.07812 50.0615 7.78754 51.1429 10.4077L53.1832 15.3517C53.3191 15.6808 53.0771 16.0424 52.721 16.0424H39.0754Z" fill="#FFD550" stroke="#1A2914" stroke-width="2"/>
<path d="M1.43262 22.6855H39.0755" stroke="#1A2914" stroke-width="2" stroke-linecap="round" stroke-linejoin="round"/>
<path d="M42.3968 40.399C46.0655 40.399 49.0396 37.4249 49.0396 33.7561C49.0396 30.0874 46.0655 27.1133 42.3968 27.1133C38.728 27.1133 35.7539 30.0874 35.7539 33.7561C35.7539 37.4249 38.728 40.399 42.3968 40.399Z" stroke="#1A2914" stroke-width="2" stroke-linecap="round" stroke-linejoin="round"/>
<path d="M13.6111 40.399C17.2799 40.399 20.254 37.4249 20.254 33.7561C20.254 30.0874 17.2799 27.1133 13.6111 27.1133C9.94237 27.1133 6.96826 30.0874 6.96826 33.7561C6.96826 37.4249 9.94237 40.399 13.6111 40.399Z" fill="#FFD550" stroke="#1A2914" stroke-width="2" stroke-linecap="round" stroke-linejoin="round"/>
<path d="M35.7542 32.6494H20.2542" stroke="#1A2914" stroke-width="2" stroke-linecap="round" stroke-linejoin="round"/>
<path d="M6.91297 32.6494H3.31476C2.81558 32.6494 2.33685 32.4453 1.98388 32.0819C1.63091 31.7186 1.43262 31.2258 1.43262 30.7119V3.58691C1.43262 3.07306 1.63091 2.58025 1.98388 2.2169C2.33685 1.85354 2.81558 1.64941 3.31476 1.64941H39.0755V27.6119" stroke="#1A2914" stroke-width="2" stroke-linecap="round" stroke-linejoin="round"/>
<path d="M39.0757 16.042H54.5757V30.8039C54.5757 31.2933 54.3716 31.7626 54.0082 32.1087C53.6449 32.4547 53.152 32.6491 52.6382 32.6491H48.9016" stroke="#1A2914" stroke-width="2" stroke-linecap="round" stroke-linejoin="round"/>
<path d="M5.86108 15.3513L5.86108 6.07812" stroke="#1A2914" stroke-width="2" stroke-linecap="round" stroke-linejoin="round"/>
<path d="M25.7898 18.2568L35.063 18.2568" stroke="#1A2914" stroke-width="2" stroke-linecap="round" stroke-linejoin="round"/>
<path d="M25.7897 36.9707L29.1111 36.9707" stroke="#1A2914" stroke-width="2" stroke-linecap="round" stroke-linejoin="round"/>
</svg>
