<svg width="17" height="14" viewBox="0 0 17 14" fill="none" xmlns="http://www.w3.org/2000/svg">
<path d="M16.6397 2.12819C16.0406 2.38834 15.4067 2.55973 14.758 2.63694C15.4397 2.23805 15.9523 1.60433 16.1998 0.854652C15.5553 1.23126 14.8513 1.4955 14.1181 1.63607C13.8093 1.3127 13.438 1.05546 13.0266 0.879972C12.6153 0.704483 12.1725 0.614414 11.7253 0.61524C9.9144 0.61524 8.44895 2.05836 8.44895 3.83733C8.44767 4.08478 8.47604 4.33149 8.53347 4.57219C7.23496 4.51136 5.96345 4.18035 4.80029 3.60033C3.63713 3.02031 2.60794 2.20406 1.77855 1.2038C1.48758 1.69397 1.3337 2.25323 1.33299 2.82315C1.33299 3.94041 1.91631 4.92799 2.79711 5.50657C2.27526 5.49419 1.7641 5.35617 1.30704 5.10422V5.14412C1.30704 6.70695 2.4384 8.00709 3.9358 8.30303C3.65422 8.37804 3.36405 8.41605 3.07263 8.41609C2.86585 8.41645 2.65954 8.3964 2.4567 8.35624C2.87298 9.63643 4.08454 10.5675 5.51971 10.5941C4.35353 11.4922 2.92177 11.9776 1.44945 11.974C1.18811 11.9736 0.927018 11.9581 0.66748 11.9275C2.16527 12.8832 3.90633 13.3887 5.68343 13.3839C11.7183 13.3839 15.0152 8.47262 15.0152 4.21307C15.0152 4.07342 15.0115 3.93376 15.0049 3.79743C15.6448 3.34256 16.1984 2.7773 16.6397 2.12819Z" fill="#1A2914"/>
</svg>
