<svg width="20" height="16" viewBox="0 0 20 16" fill="none" xmlns="http://www.w3.org/2000/svg">
<path d="M19.5761 2.1537C18.8571 2.46592 18.0962 2.67161 17.3177 2.76428C18.1359 2.28554 18.7512 1.52498 19.0482 0.625233C18.2746 1.07722 17.4298 1.39436 16.5498 1.56306C16.1792 1.17497 15.7335 0.866237 15.2398 0.65562C14.7461 0.445004 14.2147 0.336906 13.6779 0.337897C11.5046 0.337897 9.74582 2.06989 9.74582 4.20495C9.74428 4.50193 9.77834 4.79802 9.84726 5.08691C8.28883 5.0139 6.7628 4.61663 5.36681 3.92051C3.97082 3.22439 2.73561 2.24475 1.74021 1.04426C1.391 1.63255 1.20631 2.30377 1.20546 2.98777C1.20546 4.32866 1.90554 5.51392 2.96266 6.20832C2.33635 6.19346 1.72287 6.02781 1.17431 5.72543V5.77332C1.17431 7.64898 2.53214 9.20937 4.32927 9.56455C3.99133 9.65458 3.64308 9.70019 3.29333 9.70024C3.04516 9.70067 2.79755 9.67661 2.55411 9.6284C3.05371 11.1648 4.50779 12.2823 6.23024 12.3142C4.83062 13.3921 3.11226 13.9746 1.34524 13.9704C1.03159 13.9699 0.718227 13.9512 0.406738 13.9145C2.20434 15.0615 4.29391 15.6682 6.42672 15.6624C13.6696 15.6624 17.6264 9.76808 17.6264 4.65591C17.6264 4.4883 17.622 4.32068 17.6141 4.15706C18.3821 3.61115 19.0465 2.93274 19.5761 2.1537Z" fill="white"/>
</svg>
