<svg width="50" height="51" viewBox="0 0 50 51" fill="none" xmlns="http://www.w3.org/2000/svg">
<path d="M39.1816 1.5H46.818C47.3967 1.5 47.9516 1.72987 48.3608 2.13904C48.77 2.54821 48.9998 3.10316 48.9998 3.68182V11.3182" stroke="#1A2914" stroke-width="2" stroke-linecap="round" stroke-linejoin="round"/>
<path d="M39.1816 49.4998H46.818C47.3967 49.4998 47.9516 49.27 48.3608 48.8608C48.77 48.4516 48.9998 47.8967 48.9998 47.318V39.6816" stroke="#1A2914" stroke-width="2" stroke-linecap="round" stroke-linejoin="round"/>
<path d="M10.8182 49.4998H3.18182C2.60316 49.4998 2.04821 49.27 1.63904 48.8608C1.22987 48.4516 1 47.8967 1 47.318V39.6816" stroke="#1A2914" stroke-width="2" stroke-linecap="round" stroke-linejoin="round"/>
<path d="M10.8182 1.5H3.18182C2.60316 1.5 2.04821 1.72987 1.63904 2.13904C1.22987 2.54821 1 3.10316 1 3.68182V11.3182" stroke="#1A2914" stroke-width="2" stroke-linecap="round" stroke-linejoin="round"/>
<path d="M25.0007 29.8637C29.8207 29.8637 33.728 25.9564 33.728 21.1365C33.728 16.3165 29.8207 12.4092 25.0007 12.4092C20.1808 12.4092 16.2734 16.3165 16.2734 21.1365C16.2734 25.9564 20.1808 29.8637 25.0007 29.8637Z" fill="#FFD550" stroke="#1A2914" stroke-width="2" stroke-linecap="round" stroke-linejoin="round"/>
<path d="M10.5186 38.5907C11.9133 35.9598 13.9983 33.7585 16.5497 32.2233C19.1012 30.6881 22.0227 29.877 25.0004 29.877C27.9781 29.877 30.8996 30.6881 33.451 32.2233C36.0025 33.7585 38.0875 35.9598 39.4822 38.5907" stroke="#1A2914" stroke-width="2" stroke-linecap="round" stroke-linejoin="round"/>
<path d="M7.95102 37.2511C9 35.4998 10 33.4998 12.7773 31.4404" stroke="#1A2914" stroke-width="1.5" stroke-linecap="round" stroke-linejoin="round"/>
<path d="M31.9114 11.3683C33.5 12.5005 35.5 14.5005 36.4004 17.4434" stroke="#1A2914" stroke-width="1.5" stroke-linecap="round" stroke-linejoin="round"/>
<path d="M19.5699 22.0509C18.7107 20.2559 19.7109 16.2559 23.3923 15.5357" stroke="white" stroke-width="1.5" stroke-linecap="round" stroke-linejoin="round"/>
</svg>
