<svg width="50" height="56" viewBox="0 0 50 56" fill="none" xmlns="http://www.w3.org/2000/svg">
<path d="M3.95874 18.5117L25.0389 30.3462L24.6691 53.2755L3.95874 41.441V18.5117Z" fill="#FFD550"/>
<path d="M25.4087 4.82812L46.8587 17.0324L37.2432 22.21L15.4233 10.3755L25.4087 4.82812Z" fill="#FFD550"/>
<path d="M48.2492 41.211V18.0034C48.2474 17.6682 48.1572 17.3394 47.9878 17.0501C47.8183 16.7608 47.5756 16.5214 47.2841 16.3558L26.5715 4.70495C26.2924 4.54381 25.9758 4.45898 25.6535 4.45898C25.3312 4.45898 25.0147 4.54381 24.7356 4.70495L4.02288 16.3558C3.73138 16.5214 3.48867 16.7608 3.31925 17.0501C3.14982 17.3394 3.05966 17.6682 3.05786 18.0034V41.211C3.05966 41.5463 3.14982 41.8751 3.31925 42.1644C3.48867 42.4536 3.73138 42.6931 4.02288 42.8586L24.7356 54.5095C25.0147 54.6707 25.3312 54.7555 25.6535 54.7555C25.9758 54.7555 26.2924 54.6707 26.5715 54.5095L47.2841 42.8586C47.5756 42.6931 47.8183 42.4536 47.9878 42.1644C48.1572 41.8751 48.2474 41.5463 48.2492 41.211V41.211Z" stroke="#1A2914" stroke-width="2" stroke-linecap="round" stroke-linejoin="round"/>
<path d="M37.1867 35.3737V23.1344L14.3557 10.542" stroke="#1A2914" stroke-width="2" stroke-linecap="round" stroke-linejoin="round"/>
<path d="M47.9904 17.0381L25.8655 29.6069L3.31689 17.0381" stroke="#1A2914" stroke-width="2" stroke-linecap="round" stroke-linejoin="round"/>
<path d="M25.8656 29.6074L25.6538 54.7451" stroke="#1A2914" stroke-width="2" stroke-linecap="round" stroke-linejoin="round"/>
<path d="M0.999886 13.5696L11.635 7.41699" stroke="#1A2914" stroke-width="2" stroke-linecap="round" stroke-linejoin="round"/>
<path d="M29.8465 1.50025L40.4871 7.64355" stroke="#1A2914" stroke-width="2" stroke-linecap="round" stroke-linejoin="round"/>
<path d="M40.4872 42.1809L29.8467 48.3242" stroke="#1A2914" stroke-width="2" stroke-linecap="round" stroke-linejoin="round"/>
</svg>
